<svg xmlns="http://www.w3.org/2000/svg" id="Layer_1" data-name="Layer 1" viewBox="0 0 186.96 186.96"><defs><style>      .cls-1 {        fill: #fff;      }    </style></defs><g id="Cm89Y8.tif"><g><path d="M88.43,0c3.44,0,6.87,0,10.31,0,.43,.08,.85,.17,1.28,.23,4.73,.68,9.54,1,14.18,2.09,25.39,5.96,45.05,20.09,58.93,42.14,7.21,11.47,11.52,24.02,13.13,37.48,.25,2.09,.47,4.18,.7,6.27v10.31c-.08,.42-.17,.84-.23,1.27-.69,4.77-1.06,9.61-2.12,14.29-4.55,20.07-14.73,36.84-30.33,50.23-15.2,13.05-32.91,20.36-52.86,22.12-8.55,.75-17.06,.28-25.51-1.36-17.35-3.38-32.59-10.98-45.53-22.99C13.02,145.94,3.08,126.02,.65,102.41c-1.03-10.01-.47-19.95,1.86-29.73C8.8,46.36,23.67,26.29,46.91,12.5,57.78,6.05,69.59,2.2,82.14,.7c2.09-.25,4.19-.47,6.29-.7Zm46.48,94.84h-.01c0-18.41,0-36.82,0-55.23,0-4.05-2.57-7.64-6.37-8.97-4.9-1.71-11.26,.19-14.9,4.35-2.58,2.94-4.31,6.33-5.5,10-1.58,4.89-2.4,9.94-2.44,15.07-.09,9.74-.05,19.49-.06,29.23,0,3.62,1.55,5.33,5.13,5.81,.77,.11,1.59,.29,2.27,.66,1.88,.99,2.22,2.77,2.22,4.7-.01,16.49-.03,32.99,0,49.48,0,1.21,.18,2.5,.63,3.62,1.83,4.52,6.45,6.95,11.18,5.96,4.21-.88,7.91-4.7,7.89-9.8-.07-18.29-.03-36.58-.03-54.87Zm-77.63,33.46h0c0,7.19,0,14.38,0,21.57,0,5.5,4.42,9.78,9.95,9.82,5.27,.04,9.87-4.59,9.81-9.82-.18-14.02-.13-28.05-.01-42.07,.02-2.75-.82-4.76-2.94-6.41-1.34-1.04-1.93-2.5-1.92-4.21,.01-1.96,.05-3.92,0-5.87-.13-4.1,1.6-7.06,5.13-9.19,5.78-3.5,9.25-8.63,9.41-15.47,.21-9.02,.08-18.06,.02-27.08,0-.9-.35-1.91-.85-2.68-1.27-1.97-3.65-2.79-5.64-2.15-2.28,.73-3.72,2.73-3.73,5.31-.02,6.87,0,13.74,0,20.61,0,.79,.06,1.61-.1,2.37-.21,1.03-1.04,1.56-2.02,1.57-.99,0-1.76-.55-2-1.58-.13-.58-.17-1.19-.17-1.78-.01-7.23,0-14.46-.01-21.69,0-2.76-2.19-4.93-4.94-4.98-2.87-.05-5.16,2.33-5.17,5.45-.02,5.71,0,11.43,0,17.14,0,1.8,0,3.6-.01,5.39,0,1.2-.74,1.85-1.81,2.06-1.06,.21-1.91-.31-2.3-1.3-.23-.57-.3-1.24-.3-1.86-.02-7.31,0-14.62-.02-21.93-.01-2.89-2.19-4.94-5.07-4.9-2.69,.04-4.93,2.28-4.93,4.99,0,9.11-.02,18.22,0,27.33,.01,3.37,1.17,6.42,3.03,9.19,1.9,2.83,4.5,4.91,7.38,6.71,2.59,1.62,4.04,4.01,3.96,7.2-.06,2.56-.05,5.11,0,7.67,.02,1.3-.46,2.32-1.38,3.18-.44,.41-.87,.83-1.32,1.22-1.46,1.25-2.09,2.77-2.07,4.74,.08,7.15,.03,14.3,.03,21.45Z"></path><path class="cls-1" d="M88.43,0c-2.1,.23-4.19,.45-6.29,.7-12.56,1.5-24.37,5.35-35.23,11.79C23.67,26.29,8.8,46.36,2.52,72.68,.18,82.46-.37,92.4,.65,102.41c2.43,23.61,12.37,43.53,29.73,59.66,12.93,12.01,28.18,19.61,45.53,22.99,8.44,1.64,16.96,2.12,25.51,1.36,19.95-1.76,37.65-9.07,52.86-22.12,15.6-13.39,25.79-30.16,30.33-50.23,1.06-4.68,1.43-9.53,2.12-14.29,.06-.42,.15-.85,.23-1.27v88.44H0V0C29.47,0,58.95,0,88.43,0Z"></path><path class="cls-1" d="M186.96,88.21c-.23-2.09-.45-4.18-.7-6.27-1.62-13.46-5.92-26.01-13.13-37.48-13.88-22.06-33.54-36.19-58.93-42.14-4.63-1.09-9.45-1.41-14.18-2.09-.43-.06-.86-.15-1.28-.23,29.41,0,58.81,0,88.22,0V88.21Z"></path><path class="cls-1" d="M134.91,94.84c0,18.29-.04,36.58,.03,54.87,.02,5.1-3.68,8.92-7.89,9.8-4.72,.99-9.34-1.44-11.18-5.96-.45-1.11-.63-2.41-.63-3.62-.03-16.49-.02-32.99,0-49.48,0-1.93-.35-3.71-2.22-4.7-.68-.36-1.49-.55-2.27-.66-3.58-.49-5.13-2.19-5.13-5.81,0-9.74-.03-19.49,.06-29.23,.05-5.13,.86-10.18,2.44-15.07,1.19-3.67,2.92-7.06,5.5-10,3.64-4.15,10.01-6.06,14.9-4.35,3.8,1.33,6.37,4.92,6.37,8.97,0,18.41,0,36.82,0,55.23h.01Z"></path><path class="cls-1" d="M57.28,128.3c0-7.15,.05-14.3-.03-21.45-.02-1.97,.61-3.49,2.07-4.74,.46-.39,.88-.81,1.32-1.22,.92-.86,1.41-1.88,1.38-3.18-.05-2.56-.06-5.11,0-7.67,.08-3.19-1.37-5.58-3.96-7.2-2.89-1.8-5.48-3.88-7.38-6.71-1.86-2.77-3.02-5.81-3.03-9.19-.03-9.11-.02-18.22,0-27.33,0-2.72,2.24-4.96,4.93-4.99,2.88-.04,5.06,2.01,5.07,4.9,.03,7.31,0,14.62,.02,21.93,0,.62,.07,1.29,.3,1.86,.4,.99,1.24,1.51,2.3,1.3,1.07-.21,1.8-.86,1.81-2.06,0-1.8,.01-3.6,.01-5.39,0-5.71-.01-11.43,0-17.14,.01-3.12,2.29-5.5,5.17-5.45,2.75,.05,4.94,2.22,4.94,4.98,.01,7.23,0,14.46,.01,21.69,0,.59,.04,1.2,.17,1.78,.24,1.03,1.01,1.59,2,1.58,.98,0,1.81-.54,2.02-1.57,.16-.77,.1-1.58,.1-2.37,0-6.87-.01-13.74,0-20.61,0-2.58,1.45-4.57,3.73-5.31,1.99-.64,4.37,.19,5.64,2.15,.49,.76,.84,1.77,.85,2.68,.06,9.03,.19,18.06-.02,27.08-.16,6.84-3.63,11.97-9.41,15.47-3.53,2.13-5.26,5.09-5.13,9.19,.06,1.96,.02,3.91,0,5.87-.01,1.71,.59,3.17,1.92,4.21,2.12,1.65,2.96,3.66,2.94,6.41-.11,14.02-.16,28.05,.01,42.07,.07,5.23-4.54,9.86-9.81,9.82-5.53-.04-9.94-4.32-9.95-9.82-.01-7.19,0-14.38,0-21.57h0Z"></path></g></g></svg>